<?xml version="1.0" standalone="no"?>
<!DOCTYPE svg PUBLIC "-//W3C//DTD SVG 20010904//EN"
 "http://www.w3.org/TR/2001/REC-SVG-20010904/DTD/svg10.dtd">
<svg version="1.0" xmlns="http://www.w3.org/2000/svg"
 width="512.000000pt" height="512.000000pt" viewBox="0 0 512.000000 512.000000"
 preserveAspectRatio="xMidYMid meet">
<metadata>
Created by potrace 1.14, written by Peter Selinger 2001-2017
</metadata>
<g transform="translate(0.000000,512.000000) scale(0.100000,-0.100000)"
fill="#000000" stroke="none">
<path d="M2230 5029 c-97 -12 -142 -18 -170 -24 -14 -3 -38 -8 -53 -10 -583
-107 -1143 -459 -1510 -950 -255 -342 -405 -702 -473 -1140 -24 -153 -25 -527
-1 -680 21 -138 26 -162 37 -205 5 -19 11 -46 14 -60 5 -27 31 -118 46 -160
36 -105 67 -186 96 -248 19 -41 34 -75 34 -77 0 -12 142 -255 188 -320 313
-448 763 -786 1262 -949 93 -30 254 -73 300 -80 19 -3 62 -10 95 -16 114 -19
201 -25 390 -25 254 0 358 12 580 65 453 109 867 347 1195 686 53 55 113 122
135 149 22 28 42 52 45 55 23 21 153 216 197 294 149 265 265 602 298 866 3
25 10 74 15 110 8 63 5 484 -4 545 -3 17 -8 48 -11 70 -3 22 -8 51 -11 65 -16
79 -19 119 -13 144 5 16 11 52 14 80 4 28 9 54 11 57 2 3 6 21 9 40 6 32 20
92 31 132 3 9 12 17 19 17 55 0 89 49 100 145 3 33 8 71 10 85 28 178 13 206
-125 235 -111 24 -141 30 -270 50 -156 24 -162 24 -239 31 -41 3 -80 7 -87 8
-7 1 -43 37 -79 79 l-65 76 16 35 c42 87 -50 169 -135 122 -19 -10 -28 -11
-36 -2 -6 6 -27 24 -47 39 -34 27 -35 29 -24 68 8 32 7 46 -5 67 -14 26 -192
157 -274 203 -257 142 -502 238 -730 283 -117 24 -116 23 -180 31 -33 4 -71 9
-85 12 -42 9 -441 10 -510 2z"/>
</g>
</svg>
